Coordinates
version=1
nRows=9
nColumns=26
inDegrees=yes

Units are S.I. units (second, meters, Newtons, ...)
Angles are in degrees.

endheader
time	pelvis_tilt	pelvis_list	pelvis_rotation	pelvis_tx	pelvis_ty	pelvis_tz	hip_flexion_r	hip_adduction_r	hip_rotation_r	knee_angle_r	knee_angle_r_beta	ankle_angle_r	subtalar_angle_r	mtp_angle_r	hip_flexion_l	hip_adduction_l	hip_rotation_l	knee_angle_l	knee_angle_l_beta	ankle_angle_l	subtalar_angle_l	mtp_angle_l	lumbar_extension	lumbar_bending	lumbar_rotation
      0.55000000	      3.48025664	      0.66354943	      3.91864690	      0.64083688	      0.99132260	      0.16577825	     17.55243444	     -1.34970616	     -5.34388895	      5.15592588	      5.15592588	     -1.77552727	      0.00000000	      0.00000000	    -13.74355496	      0.60247749	     -6.98594562	     13.00450752	     13.00450752	     15.58416350	      0.00000000	      0.00000000	    -17.22389541	     -0.15544519	     -3.59170955
      0.55833333	      3.61837800	      0.51282473	      4.02870666	      0.65089450	      0.99038984	      0.16669143	     17.43905616	     -1.05387210	     -5.24796491	      6.21247500	      6.21247500	     -2.31366700	      0.00000000	      0.00000000	    -14.25132015	      0.23013396	     -7.08005482	     13.52542986	     13.52542986	     15.70217792	      0.00000000	      0.00000000	    -17.24408653	      0.13364666	     -3.72600470
      0.56666667	      3.78853747	      0.37988417	      4.13641041	      0.66106569	      0.98975475	      0.16767505	     17.19693353	     -0.77452946	     -4.98651707	      7.05444996	      7.05444996	     -2.72272792	      0.00000000	      0.00000000	    -14.72343134	     -0.13258785	     -7.23295910	     14.16018735	     14.16018735	     15.73349556	      0.00000000	      0.00000000	    -17.28775601	      0.39884387	     -3.87332582
      0.57500000	      3.95873333	      0.19988282	      4.20990954	      0.67137144	      0.98920842	      0.16871964	     16.94405098	     -0.44822788	     -4.80537792	      7.80713005	      7.80713005	     -3.45189051	      0.00000000	      0.00000000	    -15.11981921	     -0.57002382	     -7.50078545	     14.94688921	     14.94688921	     15.74593811	      0.00000000	      0.00000000	    -17.31278119	      0.71433917	     -3.95072778
      0.58333333	      4.04797512	      0.09314847	      4.24033401	      0.68173342	      0.98860369	      0.16972436	     16.73962696	     -0.20966141	     -4.65995048	      8.46573956	      8.46573956	     -4.57284266	      0.00000000	      0.00000000	    -15.36385621	     -0.92919959	     -7.65038321	     15.89678283	     15.89678283	     15.72673787	      0.00000000	      0.00000000	    -17.23726421	      0.94453416	     -3.96325310
      0.59166667	      4.14586258	     -0.03952888	      4.30742731	      0.69215496	      0.98809366	      0.17060712	     16.52352631	     -0.00773753	     -4.73377053	      9.16475411	      9.16475411	     -5.43982510	      0.00000000	      0.00000000	    -15.54349798	     -1.31838762	     -7.63429442	     16.96331967	     16.96331967	     15.61626903	      0.00000000	      0.00000000	    -17.16056106	      1.22477781	     -3.99190360
      0.60000000	      4.34562791	     -0.12166701	      4.31845629	      0.70278438	      0.98787433	      0.17152007	     16.14617581	      0.13587895	     -4.89808232	      9.84404782	      9.84404782	     -6.08312246	      0.00000000	      0.00000000	    -15.76113968	     -1.65708588	     -7.64592035	     18.17772221	     18.17772221	     15.38951644	      0.00000000	      0.00000000	    -17.18497653	      1.44187757	     -3.94786126
      0.60833333	      4.55106870	     -0.23901282	      4.28497621	      0.71345114	      0.98763766	      0.17217205	     15.72443755	      0.30245696	     -4.85442418	     10.55461737	     10.55461737	     -6.43997755	      0.00000000	      0.00000000	    -15.85311892	     -2.00737805	     -7.65317820	     19.61310636	     19.61310636	     15.15823656	      0.00000000	      0.00000000	    -17.20723388	      1.73083915	     -3.80972894
      0.61666667	      4.82730644	     -0.33650458	      4.22584605	      0.72407337	      0.98795621	      0.17329559	     15.12826723	      0.50870744	     -4.45096066	     11.12790172	     11.12790172	     -6.70492209	      0.00000000	      0.00000000	    -15.90942086	     -2.37666495	     -7.47186169	     21.14682772	     21.14682772	     14.58756408	      0.00000000	      0.00000000	    -17.33978428	      1.93498728	     -3.61730919
